<svg width="1271" height="999" viewBox="0 0 1271 999" fill="none" xmlns="http://www.w3.org/2000/svg">
<mask id="mask0_22_2428" style="mask-type:alpha" maskUnits="userSpaceOnUse" x="0" y="0" width="1271" height="999">
<g clip-path="url(#clip0_22_2428)">
<path d="M259.662 633.15C-174.018 684.209 35.2576 668.45 -142.501 882.769C-177.59 910.084 -226.715 965.596 -142.501 969.126C-37.2325 973.539 -7.60611 1027.75 114.051 1024.6C235.709 1021.45 337.195 1043.51 526.299 1043.51C715.404 1043.51 633.459 959.041 734.315 860.706C835.17 762.372 779.7 798.932 751.964 517.166C724.229 235.4 693.342 582.092 259.662 633.15Z" fill="#D9D9D9"/>
<path d="M716.076 303.828C716.076 451.088 618.712 570.465 498.606 570.465C378.5 570.465 -371.906 53.9679 -371.906 -93.292C-371.906 -240.552 706.282 -37.8213 826.387 -37.8213C946.493 -37.8213 716.076 156.568 716.076 303.828Z" fill="url(#paint0_linear_22_2428)"/>
<path d="M1500.67 189.032C1500.67 336.292 1403.3 455.67 1283.2 455.67C1163.09 455.67 494 421.344 494 274.085C494 126.825 543.458 -222 663.564 -222C783.669 -222 1500.67 41.7723 1500.67 189.032Z" fill="url(#paint1_radial_22_2428)"/>
<path d="M1233.27 352.095C1557.33 644.783 1407.63 497.695 1685.98 490.285C1729.64 498.696 1803.77 499.096 1750.96 433.405C1684.94 351.29 1706.22 293.292 1623.71 203.828C1541.21 114.364 1490.97 23.4704 1366.41 -118.82C1241.86 -261.11 1232.27 -143.816 1091.85 -154.935C951.434 -166.054 1015.48 -148.397 821.735 58.0604C627.991 264.517 909.201 59.4063 1233.27 352.095Z" fill="#D9D9D9"/>
</g>
</mask>
<g mask="url(#mask0_22_2428)">
<g opacity="0.6">
<line x1="576.892" y1="794" x2="576.892" y2="537" stroke="#171717"/>
<line x1="924.892" y1="794" x2="924.892" y2="537" stroke="#171717"/>
<line x1="344.892" y1="794" x2="344.892" y2="537" stroke="#171717"/>
<line x1="228.892" y1="922" x2="228.892" y2="411" stroke="#171717"/>
<line x1="1156.89" y1="1012" x2="1156.89" y2="249" stroke="#171717"/>
<line x1="112.892" y1="1012" x2="112.892" y2="249" stroke="#171717"/>
<line x1="692.892" y1="794" x2="692.892" y2="537" stroke="#171717"/>
<line x1="1040.89" y1="922" x2="1040.89" y2="411" stroke="#171717"/>
</g>
<g opacity="0.6">
<line x1="112.392" y1="472.5" x2="1157.39" y2="472.5" stroke="#171717"/>
<line x1="-3.6084" y1="792.5" x2="1273.39" y2="792.5" stroke="#171717"/>
<line x1="-3.6084" y1="728.5" x2="1273.39" y2="728.5" stroke="#171717"/>
<line x1="112.392" y1="408.5" x2="1157.39" y2="408.5" stroke="#171717"/>
<line x1="112.392" y1="664.5" x2="1157.39" y2="664.5" stroke="#171717"/>
<line x1="-3.6084" y1="984.5" x2="1273.39" y2="984.5" stroke="#171717"/>
<line x1="-3.6084" y1="344.5" x2="1273.39" y2="344.5" stroke="#171717"/>
<line x1="112.392" y1="600.5" x2="1157.39" y2="600.5" stroke="#171717"/>
<line x1="-3.6084" y1="920.5" x2="1273.39" y2="920.5" stroke="#171717"/>
<line x1="112.392" y1="536.5" x2="1157.39" y2="536.5" stroke="#171717"/>
<line x1="-3.6084" y1="856.5" x2="1273.39" y2="856.5" stroke="#171717"/>
<line x1="-84.6084" y1="248.5" x2="1355.39" y2="248.5" stroke="#171717"/>
<line x1="-84.6084" y1="80.5" x2="1355.39" y2="80.5001" stroke="#171717"/>
<line x1="-84.6084" y1="0.5" x2="1355.39" y2="0.500126" stroke="#171717"/>
</g>
<g filter="url(#filter0_f_22_2428)">
<path d="M645.852 559.797C559.397 672.867 410.974 870.09 580.886 848.341C750.798 826.592 884.229 722.09 923.209 667.306C1017.66 548.676 1200.87 374.561 1046.15 370.112C891.425 365.664 706.321 494.303 645.852 559.797Z" fill="#BAE6FD"/>
</g>
<g filter="url(#filter1_f_22_2428)">
<path d="M491.774 72.8874C625.602 121.357 857.032 207.185 702.284 280.645C547.537 354.105 378.8 338.216 316.407 313.161C172.846 264.329 -75.3767 216.734 52.4362 129.43C180.249 42.1268 405.511 50.4236 491.774 72.8874Z" fill="#CCFBF1"/>
</g>
</g>
<defs>
<filter id="filter0_f_22_2428" x="403" y="270" width="803" height="680" filterUnits="userSpaceOnUse" color-interpolation-filters="sRGB">
<feFlood flood-opacity="0" result="BackgroundImageFix"/>
<feBlend mode="normal" in="SourceGraphic" in2="BackgroundImageFix" result="shape"/>
<feGaussianBlur stdDeviation="50" result="effect1_foregroundBlur_22_2428"/>
</filter>
<filter id="filter1_f_22_2428" x="-183.003" y="-142.116" width="1136.68" height="676.231" filterUnits="userSpaceOnUse" color-interpolation-filters="sRGB">
<feFlood flood-opacity="0" result="BackgroundImageFix"/>
<feBlend mode="normal" in="SourceGraphic" in2="BackgroundImageFix" result="shape"/>
<feGaussianBlur stdDeviation="100" result="effect1_foregroundBlur_22_2428"/>
</filter>
<linearGradient id="paint0_linear_22_2428" x1="147.502" y1="-19.5411" x2="601.983" y2="222.513" gradientUnits="userSpaceOnUse">
<stop stop-color="white"/>
<stop offset="1" stop-color="white" stop-opacity="0"/>
</linearGradient>
<radialGradient id="paint1_radial_22_2428" cx="0" cy="0" r="1" gradientUnits="userSpaceOnUse" gradientTransform="translate(812.956 195.291) rotate(-29.3932) scale(777.019 1335.47)">
<stop stop-color="white"/>
<stop offset="1" stop-color="white" stop-opacity="0"/>
</radialGradient>
<clipPath id="clip0_22_2428">
<rect width="1270.78" height="998.473" fill="white"/>
</clipPath>
</defs>
</svg>
